<?xml version="1.0" encoding="utf-8"?>
<!-- Generator: Adobe Illustrator 24.2.0, SVG Export Plug-In . SVG Version: 6.00 Build 0)  -->
<svg version="1.1" id="layer" xmlns="http://www.w3.org/2000/svg" xmlns:xlink="http://www.w3.org/1999/xlink" x="0px" y="0px"
	 viewBox="0 0 512 512" style="enable-background:new 0 0 512 512;" xml:space="preserve">
<style type="text/css">
	.st0{fill:#003C8B;}
</style>
<g>
	<path class="st0" d="M465.25,183.62h2.62c1.28,0,2.1-0.22,2.55-0.52c0.45-0.38,0.68-0.9,0.68-1.5c0-0.38-0.07-0.75-0.3-1.05
		c-0.22-0.3-0.52-0.53-0.9-0.68s-1.12-0.23-2.18-0.23h-2.48V183.62z M463.07,191.2v-13.43h4.57c1.57,0,2.7,0.15,3.45,0.38
		c0.68,0.23,1.28,0.68,1.65,1.28c0.45,0.6,0.6,1.27,0.6,1.95c0,0.98-0.38,1.88-1.05,2.55c-0.75,0.75-1.65,1.12-2.77,1.2
		c0.45,0.23,0.82,0.45,1.12,0.75c0.52,0.52,1.2,1.43,2.02,2.62l1.65,2.62h-2.7l-1.2-2.1c-0.98-1.65-1.73-2.7-2.25-3.15
		c-0.38-0.3-0.98-0.45-1.73-0.45h-1.27v5.7h-2.1V191.2z M468.55,173.8c-1.73,0-3.45,0.45-5.1,1.35c-1.65,0.9-2.93,2.18-3.9,3.9
		c-0.9,1.65-1.43,3.45-1.43,5.25c0,1.8,0.45,3.52,1.35,5.17c0.9,1.65,2.18,2.93,3.9,3.83c1.65,0.9,3.38,1.42,5.18,1.42
		s3.52-0.45,5.18-1.42c1.65-0.9,2.93-2.18,3.9-3.83c0.9-1.65,1.35-3.38,1.35-5.17c0-1.8-0.53-3.53-1.43-5.25
		c-0.98-1.65-2.25-3-3.9-3.9C472,174.25,470.35,173.8,468.55,173.8 M468.55,171.7c2.1,0,4.12,0.52,6.15,1.65
		c2.03,1.05,3.6,2.62,4.65,4.65c1.12,2.03,1.65,4.12,1.65,6.3c0,2.17-0.52,4.2-1.65,6.23c-1.12,1.95-2.62,3.52-4.65,4.65
		c-1.95,1.12-4.05,1.65-6.22,1.65c-2.18,0-4.28-0.52-6.23-1.65s-3.52-2.62-4.65-4.65c-1.12-2.03-1.65-4.05-1.65-6.23
		s0.6-4.27,1.65-6.3c1.12-2.02,2.7-3.52,4.72-4.65C464.42,172.3,466.45,171.7,468.55,171.7"/>
	<path class="st0" d="M223.52,284.2h6.83v37.35h-6.83V284.2z M226.75,277.3c-2.55,0-4.28-2.03-4.28-4.42c0-2.4,1.8-4.35,4.43-4.35
		s4.35,1.95,4.35,4.35C231.25,275.27,229.52,277.3,226.75,277.3L226.75,277.3z"/>
	<path class="st0" d="M248.8,294.33c0-3.9-0.15-7.05-0.3-10.12h5.93l0.3,6h0.22c2.1-3.53,5.55-6.9,11.85-6.9
		c5.03,0,8.85,3.08,10.5,7.5h0.15c1.2-2.17,2.7-3.67,4.27-4.88c2.25-1.72,4.65-2.62,8.17-2.62c5.03,0,12.38,3.23,12.38,16.2v21.97
		h-6.6v-21.15c0-7.28-2.7-11.48-8.1-11.48c-3.97,0-6.9,2.85-8.1,6.08c-0.3,0.98-0.53,2.25-0.53,3.38v23.17h-6.67v-22.35
		c0-6-2.62-10.28-7.8-10.28c-4.2,0-7.35,3.38-8.4,6.75c-0.37,0.98-0.52,2.18-0.52,3.3v22.57h-6.68v-27.15H248.8z"/>
	<path class="st0" d="M340.15,302.5c-7.42-0.15-15.83,1.2-15.83,8.4c0,4.5,2.93,6.45,6.3,6.45c4.95,0,8.1-3.08,9.15-6.23
		c0.23-0.67,0.3-1.5,0.3-2.17v-6.45H340.15z M346.75,312.63c0,3.22,0.15,6.45,0.52,8.92h-6.08l-0.6-4.73h-0.23
		c-2.02,2.93-6.07,5.55-11.4,5.55c-7.58,0-11.4-5.33-11.4-10.73c0-9,8.03-13.95,22.5-13.88v-0.75c0-3.08-0.82-8.7-8.47-8.62
		c-3.53,0-7.2,0.98-9.83,2.78l-1.58-4.58c3.08-1.95,7.65-3.23,12.38-3.23c11.48,0,14.25,7.8,14.25,15.3v13.95H346.75z"/>
	<path class="st0" d="M390.1,298.83c0-1.05-0.08-2.1-0.38-3c-1.28-4.05-4.5-7.28-9.53-7.28c-6.52,0-11.1,5.48-11.1,14.17
		c0,7.28,3.75,13.43,11.02,13.43c4.28,0,8.03-2.62,9.45-6.98c0.38-1.05,0.53-2.4,0.53-3.6L390.1,298.83L390.1,298.83z
		 M396.85,316.08c0,8.62-1.8,13.8-5.33,17.17c-3.67,3.3-8.92,4.5-13.65,4.5c-4.5,0-9.38-1.05-12.45-3.08l1.72-5.25
		c2.48,1.65,6.38,3,10.95,3c6.98,0,12.08-3.6,12.08-13.12v-4.05h-0.15c-2.02,3.45-6.07,6.3-11.85,6.3c-9.3,0-15.9-7.88-15.9-18.3
		c0-12.67,8.25-19.8,16.95-19.8c6.45,0,9.98,3.3,11.62,6.45H391l0.22-5.55h6c-0.22,2.62-0.3,5.62-0.3,10.2v21.52H396.85z"/>
	<path class="st0" d="M439,299.13c0.07-4.28-1.72-11.03-9.3-11.03c-6.97,0-9.9,6.3-10.43,11.03H439z M419.2,304
		c0.15,9.22,5.93,12.97,12.68,12.97c4.88,0,7.88-0.83,10.35-1.88l1.27,4.8c-2.4,1.05-6.52,2.4-12.52,2.4
		c-11.4,0-18.38-7.65-18.38-18.83c0-11.33,6.68-20.25,17.62-20.25c12.22,0,15.38,10.73,15.38,17.62c0,1.42-0.07,2.48-0.23,3.23
		L419.2,304z"/>
	<path class="st0" d="M105.77,188.12c-37.28,0-68.25,26.85-74.77,62.25c4.58-12.3,14.92-24.53,35.7-32.92
		c22.95-9.3,58.8-12,78.67,37.05l2.02,5.1l-79.87,32.25c4.12,7.73,13.2,25.2,37.95,15.23c8.55-3.45,15.68-11.03,14.93-19.65
		l31.5-12.75c2.33,29.1-17.4,46.95-37.35,55.05c-11.62,4.73-22.95,7.12-33.6,6.38c7.8,2.7,16.12,4.2,24.82,4.2
		c42,0,76.12-34.05,76.12-76.12C181.9,222.18,147.85,188.12,105.77,188.12"/>
	<path class="st0" d="M75.7,240.85c-14.47,5.85-18.67,17.4-14.7,32.25l47.47-19.2C99.7,237.25,85.52,236.88,75.7,240.85"/>
	<path class="st0" d="M268.45,233.65c-5.4,4.88-9.3,6.38-17.47,6.38c-17.93,0-27.08-14.18-27.08-30.15
		c15.45-0.3,30.68-0.6,46.12-0.83c0-16.8-6.08-27.9-24.97-27.9c-23.62,0-35.25,18.3-35.25,36.23c0,21.53,12.75,36.22,35.93,36.22
		c9,0,18.6-10.95,25.12-16.8L268.45,233.65z M238.9,186.7c9.97-0.52,14.7,7.5,15.53,16.95c-9.82,1.65-20.7,2.25-30.53,2.25
		C225.02,193.6,231.1,186.7,238.9,186.7"/>
	<path class="st0" d="M304.98,235c0,12.6,0.15,13.12,5.85,13.12v2.93c-3.82-0.08-7.57-0.22-11.47-0.22c-3.83,0-7.73,0.07-11.55,0.22
		v-2.93c5.85,0,6.6-0.82,6.6-20.4V191.5c0-13.35-0.75-14.17-6.45-14.17v-2.93c7.43-0.82,11.78-1.27,17.93-2.7
		c-0.3,3.45-0.83,7.95-0.83,12.82V235H304.98z"/>
	<path class="st0" d="M327.32,186.4c2.48-2.4,5.48-4.8,7.8-7.43c2.4,2.4,4.35,5.18,7.57,7.5c-2.4,1.58-5.4,4.8-8.02,7.27
		C332.73,191.2,329.65,188.58,327.32,186.4 M325.07,248.13c5.55,0,6.15-1.05,6.15-12.82v-18.97c0-11.55-1.12-12.9-7.2-12.9v-2.92
		c5.62-0.15,11.17-1.05,16.42-2.85c1.28,3.3,1.35,6.98,1.35,10.5v30.22c0,8.62,0.52,9.68,5.7,9.68v2.92
		c-3.75-0.15-7.5-0.22-11.25-0.22s-7.5,0.08-11.25,0.22v-2.85H325.07z"/>
	<path class="st0" d="M390.92,245.65c-6.15,3.07-12.08,6.45-17.03,6.45c-8.32,0-8.55-8.32-8.55-14.62c0-6.75,0.6-21,0.6-25.65
		c0-2.4,0-5.03-0.15-7.05h-6.22v-4.8h6.15c0.22-3.98-0.53-7.42-0.53-9.6c4.28-0.9,8.85-2.17,12.68-4.35
		c-0.98,4.57-1.5,9.38-1.5,13.95h5.7c3.53,0,6.6-0.6,8.4-0.6c-0.75,1.88-1.35,3.75-1.65,5.7c-1.65,0-3.22-0.3-5.32-0.3h-7.2v31.57
		c0,5.03,2.85,8.25,6.9,8.25c1.65,0,5.03-0.97,6.15-1.88L390.92,245.65z"/>
	<path class="st0" d="M443.8,237.1c-4.05,3.68-6.98,4.8-13.12,4.8c-13.43,0-20.32-10.65-20.32-22.58
		c11.55-0.22,23.02-0.45,34.57-0.6c0-12.6-4.57-20.92-18.75-20.92c-17.7,0-26.48,13.72-26.48,27.22c0,16.12,9.6,27.15,27,27.15
		c6.75,0,13.95-8.25,18.82-12.6L443.8,237.1z M421.6,201.93c7.5-0.38,11.02,5.62,11.7,12.75c-7.43,1.28-15.53,1.65-22.95,1.65
		C411.17,207.1,415.75,201.93,421.6,201.93"/>
</g>
</svg>
